<?xml version="1.0" encoding="UTF-8" standalone="no"?>
<svg
   width="25"
   height="28.571463"
   viewBox="0 0 25 28.571463"
   fill="none"
   version="1.1"
   id="svg8"
   xmlns="http://www.w3.org/2000/svg"
   xmlns:svg="http://www.w3.org/2000/svg">
  <g
     clip-path="url(#clip0)"
     id="g8"
     transform="matrix(0.22497215,0,0,0.22497215,-0.08192047,0)">
    <path
       d="M 24.1766,0 C 19.811,0 16.2391,3.57187 16.2391,7.9375 V 119.062 c 0,4.366 3.5719,7.938 7.9375,7.938 h 79.3754 c 4.365,0 7.937,-3.572 7.937,-7.938 V 31.75 L 79.7391,0 Z"
       fill="#e2e5e7"
       id="path1" />
    <path
       d="M 87.6765,31.75 H 111.489 L 79.739,0 v 23.8125 c 0,4.3656 3.5719,7.9375 7.9375,7.9375 z"
       fill="#b0b7bd"
       id="path2" />
    <path
       d="M 111.489,55.5625 87.6765,31.75 h 23.8125 z"
       fill="#cad1d8"
       id="path3" />
    <path
       d="m 95.614,103.188 c 0,2.182 -1.7859,3.968 -3.9687,3.968 H 4.33288 c -2.18281,0 -3.968744,-1.786 -3.968744,-3.968 V 63.5 c 0,-2.1828 1.785934,-3.9688 3.968744,-3.9688 H 91.6453 c 2.1828,0 3.9687,1.786 3.9687,3.9688 z"
       fill="#f15642"
       id="path4" />
    <path
       d="m 17.6638,75.1959 c 0,-1.0478 0.8255,-2.1908 2.155,-2.1908 h 7.3303 c 4.1275,0 7.8423,2.7623 7.8423,8.0566 0,5.0165 -3.7148,7.8105 -7.8423,7.8105 h -5.2983 v 4.191 c 0,1.397 -0.889,2.1868 -2.032,2.1868 -1.0477,0 -2.155,-0.7898 -2.155,-2.1868 z m 4.187,1.8058 v 7.9057 h 5.2983 c 2.1273,0 3.81,-1.8772 3.81,-3.8457 0,-2.2185 -1.6827,-4.06 -3.81,-4.06 z"
       fill="#ffffff"
       id="path5" />
    <path
       d="m 41.2064,95.25 c -1.0478,0 -2.1908,-0.5715 -2.1908,-1.9646 v -18.026 c 0,-1.139 1.143,-1.9685 2.1908,-1.9685 h 7.2668 c 14.5018,0 14.1843,21.9591 0.2857,21.9591 z m 2.0002,-18.0856 v 14.216 h 5.2666 c 8.5685,0 8.9495,-14.216 0,-14.216 z"
       fill="#ffffff"
       id="path6" />
    <path
       d="m 67.801,77.4184 v 5.0443 h 8.0922 c 1.143,0 2.286,1.143 2.286,2.2502 0,1.0478 -1.143,1.9051 -2.286,1.9051 H 67.801 v 6.6635 c 0,1.1112 -0.7898,1.9645 -1.9011,1.9645 -1.397,0 -2.2502,-0.8533 -2.2502,-1.9645 V 75.2554 c 0,-1.139 0.8572,-1.9685 2.2502,-1.9685 h 11.1403 c 1.397,0 2.2224,0.8295 2.2224,1.9685 0,1.016 -0.8254,2.159 -2.2224,2.159 H 67.801 Z"
       fill="#ffffff"
       id="path7" />
    <path
       d="M 91.6453,107.156 H 16.2391 v 3.969 h 75.4062 c 2.1828,0 3.9687,-1.786 3.9687,-3.969 v -3.968 c 0,2.182 -1.7859,3.968 -3.9687,3.968 z"
       fill="#cad1d8"
       id="path8" />
  </g>
  <defs
     id="defs8">
    <clipPath
       id="clip0">
      <rect
         width="111.853"
         height="127"
         fill="#ffffff"
         id="rect8"
         x="0"
         y="0" />
    </clipPath>
  </defs>
</svg>
