<svg xmlns="http://www.w3.org/2000/svg" viewBox="0 0 960 600" width="960" height="600" role="img" aria-hidden="true"><rect width="960" height="600" fill="#343943"/><rect x="24.5" y="24.5" width="911" height="551" fill="none" stroke="#4C535F" stroke-width="1"/><line x1="60.0" y1="24" x2="60.0" y2="576" stroke="#4C535F" stroke-width="1" opacity="0.45"/><line x1="120.0" y1="24" x2="120.0" y2="576" stroke="#4C535F" stroke-width="1" opacity="0.45"/><line x1="180.0" y1="24" x2="180.0" y2="576" stroke="#4C535F" stroke-width="1" opacity="0.45"/><line x1="240.0" y1="24" x2="240.0" y2="576" stroke="#4C535F" stroke-width="1" opacity="0.45"/><line x1="300.0" y1="24" x2="300.0" y2="576" stroke="#4C535F" stroke-width="1" opacity="0.45"/><line x1="360.0" y1="24" x2="360.0" y2="576" stroke="#4C535F" stroke-width="1" opacity="0.45"/><line x1="420.0" y1="24" x2="420.0" y2="576" stroke="#4C535F" stroke-width="1" opacity="0.45"/><line x1="480.0" y1="24" x2="480.0" y2="576" stroke="#4C535F" stroke-width="1" opacity="0.45"/><line x1="540.0" y1="24" x2="540.0" y2="576" stroke="#4C535F" stroke-width="1" opacity="0.45"/><line x1="600.0" y1="24" x2="600.0" y2="576" stroke="#4C535F" stroke-width="1" opacity="0.45"/><line x1="660.0" y1="24" x2="660.0" y2="576" stroke="#4C535F" stroke-width="1" opacity="0.45"/><line x1="720.0" y1="24" x2="720.0" y2="576" stroke="#4C535F" stroke-width="1" opacity="0.45"/><line x1="780.0" y1="24" x2="780.0" y2="576" stroke="#4C535F" stroke-width="1" opacity="0.45"/><line x1="840.0" y1="24" x2="840.0" y2="576" stroke="#4C535F" stroke-width="1" opacity="0.45"/><line x1="900.0" y1="24" x2="900.0" y2="576" stroke="#4C535F" stroke-width="1" opacity="0.45"/><line x1="24" y1="504" x2="936" y2="504" stroke="#98A0AC" stroke-width="2"/><rect x="100.0" y="241.0" width="63.9" height="263.0" fill="#2B303A" stroke="#98A0AC" stroke-width="2"/><rect x="216.0" y="243.0" width="63.9" height="261.0" fill="#2B303A" stroke="#98A0AC" stroke-width="2"/><rect x="332.0" y="426.0" width="63.9" height="78.0" fill="#2B303A" stroke="#98A0AC" stroke-width="2"/><rect x="448.1" y="219.0" width="63.9" height="285.0" fill="#2B303A" stroke="#98A0AC" stroke-width="2"/><rect x="564.1" y="403.0" width="63.9" height="101.0" fill="#2B303A" stroke="#98A0AC" stroke-width="2"/><rect x="680.1" y="368.0" width="63.9" height="136.0" fill="#B4602E" stroke="#D9905C" stroke-width="2"/><rect x="796.1" y="297.0" width="63.9" height="207.0" fill="#2B303A" stroke="#98A0AC" stroke-width="2"/></svg>