<?xml version="1.0" encoding="UTF-8" standalone="no"?>
<!-- Created with Inkscape (http://www.inkscape.org/) -->

<svg
   width="512mm"
   height="512mm"
   viewBox="0 0 511.99999 511.99998"
   version="1.1"
   id="svg1"
   xml:space="preserve"
   xmlns="http://www.w3.org/2000/svg"
   xmlns:svg="http://www.w3.org/2000/svg"><defs
     id="defs1" /><g
     id="g7"
     transform="matrix(3.9390073,0,0,3.9390073,-7.6370035,-15.361545)"><path
       style="fill:#76b054"
       d="m 28.516849,133.51524 c -0.768066,-0.0941 -1.167968,-0.20001 -0.888671,-0.23531 0.279296,-0.0353 -0.395509,-0.22729 -1.499567,-0.42666 -1.104059,-0.19937 -2.646539,-0.54673 -3.427734,-0.7719 -0.781196,-0.22517 -2.409996,-0.83433 -3.619556,-1.35369 -1.20956,-0.51936 -3.209072,-1.61607 -4.443359,-2.43713 -1.234288,-0.82106 -3.052091,-2.29511 -4.039562,-3.27567 -0.987472,-0.98057 -2.3286195,-2.53809 -2.9803283,-3.46118 -0.6517088,-0.92308 -1.6325214,-2.57982 -2.1795836,-3.68164 -0.5470621,-1.10182 -1.2989534,-2.9745 -1.6708696,-4.16151 -0.3719162,-1.18701 -0.8070163,-3.05136 -0.9668892,-4.143 -0.1698046,-1.15946 -0.3568346,-1.79621 -0.4497723,-1.53126 -0.087502,0.24944 -0.2401778,-0.62056 -0.3392798,-1.93334 -0.099102,-1.31278 -0.096822,-3.76581 0.00507,-5.45116 0.1045261,-1.728979 0.2554073,-2.787677 0.3462448,-2.42952 0.1088232,0.429072 0.2149354,0.01422 0.3274595,-1.280211 0.091557,-1.053238 0.4068773,-3.160754 0.7007118,-4.68337 0.2938345,-1.522616 0.98443,-4.145739 1.5346566,-5.829163 0.5502267,-1.683424 1.674327,-4.431865 2.4980008,-6.107646 0.8236737,-1.675781 2.1646199,-4.040387 2.9798803,-5.25468 0.815261,-1.214293 2.372472,-3.243085 3.46047,-4.508428 1.087998,-1.265343 3.030381,-3.22039 4.316406,-4.344549 1.286026,-1.124159 3.537936,-2.84903 5.004244,-3.833048 1.466309,-0.984018 4.265625,-2.56943 6.220703,-3.523138 1.955078,-0.953708 4.807346,-2.1445 6.338372,-2.646205 1.531026,-0.501704 3.93044,-1.145903 5.332031,-1.431553 1.401591,-0.28565 3.690925,-0.583318 5.08741,-0.661484 1.557428,-0.08718 3.100435,-0.02489 3.991092,0.161095 0.798616,0.166768 1.701339,0.505094 2.006051,0.751834 0.423733,0.343119 0.514299,0.606884 0.385112,1.121605 -0.09944,0.396216 -0.495854,0.842056 -0.963899,1.084092 -0.437245,0.226108 -2.178021,0.80373 -3.868392,1.283605 -1.690371,0.479875 -3.675677,1.096062 -4.411792,1.369306 -0.736114,0.273244 -1.935821,0.79852 -2.666015,1.167279 -0.730194,0.36876 -1.841786,1.019024 -2.470204,1.445031 -0.628418,0.426007 -1.984156,1.58178 -3.012752,2.568383 -1.028595,0.986603 -2.412135,2.593628 -3.074532,3.571167 -0.662398,0.977539 -1.504607,2.37041 -1.871577,3.095267 -0.36697,0.724858 -1.019365,2.204403 -1.449767,3.287877 -0.430402,1.083474 -1.114093,3.255807 -1.519313,4.827406 -0.40522,1.5716 -0.967061,4.433852 -1.248536,6.360561 -0.281475,1.92671 -0.63076,5.731135 -0.776188,8.45428 -0.17126,3.206844 -0.179873,5.759877 -0.02445,7.246647 0.131984,1.26251 0.477948,2.97256 0.76881,3.80011 0.290863,0.82756 0.851987,1.90391 1.246943,2.39189 0.394956,0.48798 1.21268,1.14878 1.817165,1.46844 0.731249,0.38669 1.531805,0.58072 2.392136,0.57978 0.71119,-7.8e-4 1.706415,-0.11623 2.211612,-0.25656 0.505196,-0.14033 1.305001,-0.51545 1.777343,-0.83361 0.472343,-0.31815 1.133525,-1.07609 1.469293,-1.68431 0.516545,-0.93568 0.661259,-1.73513 0.940416,-5.19525 0.200899,-2.49012 0.575013,-5.049565 0.956618,-6.544559 0.34468,-1.350336 1.030183,-3.386245 1.52334,-4.524242 0.493156,-1.137997 1.553301,-3.055974 2.355878,-4.262172 0.802576,-1.206198 2.351828,-3.077328 3.442782,-4.158066 1.090954,-1.080739 2.924732,-2.586981 4.075062,-3.347205 1.150331,-0.760224 2.662799,-1.667627 3.361041,-2.016451 0.698242,-0.348824 2.266444,-0.985734 3.484893,-1.415354 1.218449,-0.42962 3.21796,-0.97233 4.443359,-1.206022 1.392559,-0.26557 3.465702,-0.421804 5.528779,-0.416654 2.281523,0.0057 4.045624,0.163595 5.712891,0.511346 1.32666,0.276708 3.453727,0.89539 4.726815,1.374848 1.273088,0.479458 3.191282,1.37328 4.262652,1.986271 1.07137,0.612992 2.857192,1.842017 3.968493,2.731167 1.111301,0.889151 2.677971,2.410494 3.481489,3.380762 0.803518,0.970268 2.049116,2.731161 2.767996,3.913094 0.718881,1.181934 1.659341,3.122559 2.089912,4.3125 0.430571,1.189942 1.009285,3.27756 1.28603,4.639151 0.276746,1.361592 0.582606,3.891306 0.679691,5.621596 0.149722,2.66843 0.276418,3.34288 0.834649,4.4431 0.367923,0.72514 1.036829,1.54798 1.516937,1.86601 0.472342,0.3129 1.272147,0.68372 1.77734,0.82405 0.5052,0.14033 1.53371,0.25578 2.28557,0.25656 0.75186,7.8e-4 1.80962,-0.13119 2.35056,-0.29326 0.54094,-0.16207 1.4307,-0.67744 1.97726,-1.14527 0.58734,-0.50274 1.1836,-1.3427 1.45803,-2.05396 0.44106,-1.14309 0.46431,-2.81844 0.46431,-33.449455 0,-30.1568 -0.0293,-32.353026 -0.4529,-33.896485 -0.2491,-0.907714 -0.77589,-2.343296 -1.17066,-3.190181 -0.40225,-0.862929 -1.39176,-2.258081 -2.25103,-3.173828 -0.8433,-0.89872 -2.17416,-2.019907 -2.95746,-2.491525 -0.78331,-0.471618 -2.18856,-1.134938 -3.122786,-1.474044 -0.934226,-0.339105 -2.504305,-0.787104 -3.489066,-0.995553 -0.98476,-0.208449 -2.875922,-0.440921 -4.202582,-0.516605 -2.216035,-0.126422 -2.675817,-0.06432 -5.656244,0.763949 -1.784274,0.495857 -4.640719,1.182439 -6.347656,1.525739 -1.706937,0.3433 -4.566717,0.810903 -6.355067,1.039118 -1.78835,0.228215 -4.873311,0.425341 -6.855469,0.438058 -2.673916,0.01716 -4.028267,-0.09025 -5.24832,-0.416208 -0.904419,-0.241633 -2.097022,-0.658016 -2.65023,-0.925298 -0.553209,-0.267281 -1.264424,-0.485965 -1.58048,-0.485965 -0.369284,0 -1.192971,-0.612486 -2.304851,-1.713867 -1.031844,-1.022101 -2.001095,-2.277529 -2.401341,-3.110352 -0.369125,-0.768066 -0.812182,-1.967773 -0.984571,-2.666016 -0.172389,-0.698242 -0.466091,-1.955078 -0.652671,-2.792968 -0.18658,-0.837891 -0.341617,-2.115853 -0.344527,-2.839916 -0.0029,-0.724064 0.103867,-1.603589 0.237283,-1.9545 0.133417,-0.350912 0.676141,-1.120403 1.206055,-1.709979 0.529914,-0.589577 1.631368,-1.505212 2.447676,-2.034746 0.816309,-0.529533 2.644434,-1.415673 4.0625,-1.9692 1.418067,-0.5535269 3.720882,-1.2949351 5.117366,-1.6475737 1.396484,-0.3526385 3.853027,-0.8758835 5.458984,-1.1627665 1.605957,-0.286883 4.519532,-0.6912299 6.47461,-0.8985487 1.955078,-0.2073188 4.240234,-0.3943803 5.078125,-0.4156922 1.392296,-0.035413 1.43601,-0.05268 0.507812,-0.2005838 -0.590048,-0.094021 1.165455,-0.234239 4.189453,-0.334625 2.862793,-0.095035 6.233399,-0.079954 7.490235,0.033512 1.256836,0.1134661 1.999511,0.2349056 1.65039,0.2698654 -0.349121,0.03496 0.486843,0.2163816 1.857699,0.4031594 1.370855,0.1867778 3.702186,0.6424964 5.180733,1.0127081 1.47855,0.3702116 3.70634,1.0616182 4.95063,1.536459 1.2443,0.4748409 3.48328,1.493185 4.97551,2.262987 1.49224,0.769802 3.78751,2.169865 5.10059,3.111251 1.31309,0.941386 3.3699,2.683334 4.57069,3.870994 1.20079,1.18766 2.86585,3.070619 3.70014,4.184354 0.83428,1.113734 2.00289,2.877809 2.5969,3.920166 0.59401,1.042358 1.49111,2.873308 1.99355,4.068779 0.50244,1.195471 1.19354,3.220004 1.53578,4.498962 0.34223,1.278958 0.77938,3.335599 0.97144,4.570312 0.19205,1.234714 0.37873,1.95929 0.41483,1.610168 0.0361,-0.349121 0.1465,0.222168 0.24532,1.269532 0.0988,1.047363 0.18124,16.015136 0.18317,33.261718 0.002,17.246583 -0.08,32.1001 -0.182,33.00781 -0.10203,0.90772 -0.21687,1.36475 -0.25519,1.01563 -0.0383,-0.34912 -0.16918,0.0485 -0.29079,0.88355 -0.1216,0.83508 -0.44639,2.38748 -0.72176,3.44978 -0.27536,1.0623 -0.88782,2.84945 -1.36101,3.97145 -0.4732,1.122 -1.52072,3.05446 -2.32782,4.29436 -0.8071,1.23991 -2.39493,3.17798 -3.52852,4.30684 -1.13358,1.12886 -2.96562,2.65912 -4.07119,3.40058 -1.10557,0.74146 -2.93433,1.7812 -4.0639,2.31054 -1.12957,0.52933 -3.0686,1.25651 -4.30896,1.61595 -1.24035,0.35944 -2.89211,0.72839 -3.67056,0.81988 -0.97903,0.11507 -1.26181,0.2207 -0.91725,0.34263 0.28891,0.10225 -0.515,0.24455 -1.91397,0.3388 -1.32666,0.0894 -3.26904,0.0641 -4.316405,-0.0561 -1.047364,-0.12025 -1.675782,-0.24447 -1.396485,-0.27604 0.279297,-0.0316 -0.31568,-0.20675 -1.322172,-0.38929 -1.006491,-0.18255 -2.8193,-0.64693 -4.028464,-1.03195 -1.209163,-0.38502 -3.167871,-1.19469 -4.352684,-1.79925 -1.184813,-0.60457 -2.913996,-1.6387 -3.84263,-2.29808 -0.928634,-0.65937 -2.545358,-2.06529 -3.592722,-3.12426 -1.047363,-1.05897 -2.454812,-2.75017 -3.127665,-3.75824 -0.672853,-1.00806 -1.664492,-2.77465 -2.203643,-3.92576 -0.539152,-1.15111 -1.22085,-2.94986 -1.514885,-3.99723 -0.294035,-1.04736 -0.70138,-2.98974 -0.905211,-4.3164 -0.203831,-1.32666 -0.371276,-3.21974 -0.372099,-4.20685 -8.23e-4,-0.9871 -0.179179,-2.39306 -0.396347,-3.12434 -0.252883,-0.85155 -0.734356,-1.669113 -1.339102,-2.27386 -0.519339,-0.519338 -1.411797,-1.084331 -1.98324,-1.25554 -0.571444,-0.171208 -1.755153,-0.311288 -2.630464,-0.311288 -0.875311,0 -2.053927,0.138554 -2.619147,0.307898 -0.56522,0.169344 -1.451569,0.712069 -1.969665,1.206055 -0.635522,0.605948 -1.07487,1.346835 -1.350418,2.277245 -0.224634,0.7585 -0.408426,2.07547 -0.408426,2.92659 0,0.85112 -0.118719,2.51568 -0.26382,3.69903 -0.145101,1.18335 -0.545955,3.22219 -0.890787,4.53075 -0.344832,1.30856 -1.074428,3.33407 -1.621324,4.50111 -0.546897,1.16705 -1.60283,3.00482 -2.346518,4.08394 -0.743688,1.07912 -2.151965,2.7714 -3.129504,3.76062 -0.977539,0.98923 -2.537135,2.33878 -3.465769,2.999 -0.928633,0.66022 -2.657817,1.69504 -3.84263,2.29961 -1.184812,0.60456 -3.14352,1.41423 -4.352684,1.79925 -1.209164,0.38502 -3.021973,0.8494 -4.028464,1.03195 -1.006491,0.18254 -1.601469,0.35964 -1.322172,0.39354 0.279297,0.0339 -0.234863,0.14511 -1.142578,0.24714 -0.907715,0.10203 -2.22168,0.18024 -2.919922,0.1738 -0.698242,-0.006 -1.897949,-0.0887 -2.666016,-0.18284 z M 72.177023,17.710057 c 0.520362,-0.292459 1.135772,-0.852813 1.367579,-1.24523 0.243178,-0.411669 0.421466,-1.257062 0.421466,-1.998483 0,-1.074153 -0.128789,-1.431681 -0.784912,-2.178963 -0.452957,-0.515889 -1.183708,-1.00135 -1.72787,-1.147878 -0.607649,-0.163623 -1.24249,-0.168007 -1.785303,-0.01233 -0.46329,0.13287 -1.096892,0.408367 -1.408005,0.612216 -0.311112,0.203849 -0.754125,0.767796 -0.984472,1.253217 -0.230347,0.48542 -0.418813,1.276885 -0.418813,1.75881 0,0.488306 0.25516,1.258179 0.57635,1.738971 0.316993,0.474509 0.973975,1.062517 1.459961,1.306685 0.485986,0.244168 1.210828,0.444119 1.610759,0.444336 0.399932,2.17e-4 1.152899,-0.23889 1.67326,-0.53135 z"
       id="path9" /><path
       style="fill:#da3247"
       d="m 33.214115,35.913038 c -0.418945,-0.184927 -0.959358,-0.558234 -1.200917,-0.829573 -0.398327,-0.447431 -0.402957,-0.545084 -0.04976,-1.049349 0.214194,-0.305804 1.275235,-1.230303 2.357869,-2.054443 1.082634,-0.824139 2.333295,-1.913998 2.779248,-2.42191 0.497549,-0.566677 0.810822,-1.197262 0.810822,-1.632099 0,-0.410955 -0.23998,-0.927868 -0.571289,-1.230549 -0.314209,-0.287058 -1.743099,-1.289557 -3.175311,-2.227775 -1.432212,-0.938219 -2.83187,-1.995514 -3.110352,-2.349546 -0.278481,-0.354032 -0.50633,-0.801351 -0.50633,-0.994044 0,-0.192692 0.371338,-0.576759 0.825196,-0.853481 0.453857,-0.276722 1.248464,-0.503559 1.765794,-0.504081 0.517329,-5.22e-4 1.659907,0.271198 2.539062,0.603822 0.879155,0.332623 2.683913,1.099562 4.010573,1.704308 2.270552,1.03501 2.568569,1.104985 5.078125,1.192341 1.466309,0.05104 3.31716,-0.01214 4.113002,-0.140398 0.795842,-0.128261 1.547509,-0.16572 1.670369,-0.08324 0.122861,0.08248 0.557167,0.778375 0.965124,1.546441 0.407957,0.768066 1.581151,2.224202 2.607098,3.235857 1.187345,1.170805 1.741078,1.881487 1.523438,1.955238 -0.188057,0.06372 -0.815134,0.236833 -1.393506,0.384684 -0.578371,0.14785 -2.23511,0.437043 -3.681641,0.64265 -1.44653,0.205607 -3.431552,0.375924 -4.411159,0.378482 -1.247825,0.0033 -2.046445,0.146865 -2.667318,0.479633 -0.487417,0.261241 -1.856819,1.174528 -3.043115,2.029528 -1.186295,0.855 -2.761041,1.783836 -3.499433,2.064081 -0.738393,0.280244 -1.709585,0.505062 -2.158204,0.499596 -0.448618,-0.0055 -1.158444,-0.161242 -1.577389,-0.346169 z"
       id="path8" /><path
       style="fill:#2f3934"
       d="m 68.893004,17.797071 c -0.485986,-0.244168 -1.142968,-0.832176 -1.459961,-1.306685 -0.32119,-0.480792 -0.57635,-1.250665 -0.57635,-1.738971 0,-0.481925 0.188466,-1.27339 0.418813,-1.75881 0.230347,-0.485421 0.67336,-1.049368 0.984472,-1.253217 0.311113,-0.203849 0.944715,-0.479346 1.408005,-0.612216 0.542813,-0.155676 1.177654,-0.151292 1.785303,0.01233 0.544162,0.146528 1.274913,0.631989 1.72787,1.147878 0.656123,0.747282 0.784912,1.10481 0.784912,2.178963 0,0.741421 -0.178288,1.586814 -0.421466,1.998483 -0.231807,0.392417 -0.847217,0.952771 -1.367579,1.24523 -0.520361,0.29246 -1.273328,0.531567 -1.67326,0.53135 -0.399931,-2.17e-4 -1.124773,-0.200168 -1.610759,-0.444336 z"
       id="path7" /></g></svg>
