<?xml version="1.0" encoding="UTF-8" standalone="no"?>
<!-- Created with Inkscape (http://www.inkscape.org/) -->

<svg
   width="135.51837mm"
   height="135.55183mm"
   viewBox="0 0 135.51837 135.55183"
   version="1.1"
   id="svg1"
   xml:space="preserve"
   xmlns="http://www.w3.org/2000/svg"
   xmlns:svg="http://www.w3.org/2000/svg"><defs
     id="defs1" /><g
     id="layer1"
     transform="translate(-32.868318,-41.529725)"><path
       id="path1"
       style="fill:#000000"
       d="m 125.47556,41.529725 -0.46303,0.12092 -0.46302,0.12093 h 0.92605 0.92604 l -0.46302,-0.12093 z m -6.07612,0.004 -0.86455,0.10749 -0.86454,0.10697 1.5875,0.003 1.5875,0.003 -0.72296,-0.10955 z m 7.53132,0.046 0.66146,0.23254 0.66146,0.23254 -0.52917,0.0605 -0.52916,0.061 1.89807,0.22118 1.89859,0.22117 2.73162,0.55294 2.73213,0.55346 2.77813,0.92552 2.77812,0.92553 2.38125,1.13119 2.38125,1.13068 1.32292,0.83406 1.32292,0.83354 0.17518,0.005 0.17467,0.005 -0.0672,-0.45992 -0.0677,-0.45941 -3.15019,-1.65106 -3.1502,-1.65106 -2.24896,-0.82682 -2.24896,-0.82683 -3.0427,-0.77928 -3.04271,-0.77979 -1.29088,0.17466 -1.29036,0.17467 0.1757,-0.28422 0.17518,-0.28422 -0.7369,0.0367 -0.73691,0.0362 -1.05833,-0.1726 z m -10.58333,0.0527 -1.45521,0.14986 -1.45521,0.14986 -1.12448,-0.0372 -1.12447,-0.0377 v 0.20309 0.20257 l -2.97657,0.0134 -2.97656,0.0134 -3.70417,0.70487 -3.704162,0.70435 -2.38125,0.66766 -2.38125,0.66766 -1.85208,0.68781 -1.85209,0.6873 -1.53169,0.76326 -1.53117,0.76326 0.14676,0.23771 0.14676,0.23719 -0.31006,0.19121 -0.30954,0.19172 0.20981,-0.34003 0.2098,-0.33952 -0.36741,0.12247 -0.36742,0.12248 -0.004,0.24236 -0.004,0.24288 -0.20981,0.33073 -0.21032,0.33073 h 0.17363 0.17312 l 0.70228,-0.4961 0.70228,-0.49609 1.85209,-0.92708 1.85208,-0.92759 2.51354,-0.80046 2.51354,-0.80047 3.04271,-0.67231 3.042712,-0.67283 2.77812,-0.40256 2.77813,-0.40256 2.91041,-0.27285 2.91042,-0.27234 1.45521,-0.0191 1.45521,-0.0186 -0.52917,-0.21497 -0.52917,-0.21446 0.66146,-0.13178 z m 16.30495,0.67437 0.15968,0.15968 0.15968,0.1602 -0.50695,-0.0212 -0.50694,-0.0207 0.34726,-0.13901 z m -24.90391,0.0165 0.46302,0.12092 0.46302,0.12093 h -0.92604 -0.92604 l 0.46302,-0.12093 z m 26.22682,0.24805 0.15969,0.15968 0.15968,0.16019 -0.50695,-0.0212 -0.50695,-0.0207 0.34727,-0.13901 z m -28.33367,0.0145 0.32557,0.13177 0.32607,0.13178 -0.79375,-0.01 -0.79375,-0.01 0.46768,-0.12196 z m 29.65659,0.25011 0.15968,0.15968 0.15968,0.1602 -0.50694,-0.0212 -0.50695,-0.0207 0.34727,-0.13901 z m -31.51849,0.0109 0.33073,0.13384 0.33073,0.13333 h -0.66146 -0.66146 l 0.33073,-0.13333 z m 32.57682,0.25373 0.15969,0.15968 0.15968,0.1602 -0.50695,-0.0212 -0.50695,-0.0207 0.34727,-0.13901 z m -34.16432,0.0109 0.33073,0.13384 0.33073,0.13332 h -0.66146 -0.66146 l 0.33073,-0.13332 z m -1.5875,0.26458 0.33073,0.13384 0.33073,0.13333 h -0.66146 -0.661452 l 0.330722,-0.13333 z m -1.025262,0.25373 0.15968,0.15968 0.15968,0.1602 -0.50694,-0.0212 -0.50695,-0.0207 0.34727,-0.13901 z m 38.629172,0 0.15968,0.15968 0.15968,0.1602 -0.50695,-0.0212 -0.50694,-0.0207 0.34726,-0.13901 z m -39.952082,0.26458 0.15968,0.15968 0.15968,0.1602 -0.50695,-0.0212 -0.50694,-0.0207 0.34726,-0.13901 z m -1.05834,0.26459 0.15968,0.15968 0.15968,0.16019 -0.50694,-0.0212 -0.50695,-0.0207 0.34727,-0.13901 z m -1.05833,0.26458 0.15968,0.15968 0.15968,0.1602 -0.50694,-0.0212 -0.50695,-0.0207 0.34727,-0.13901 z m 44.020052,0.0631 h 0.26458 0.26459 l 0.39687,0.25683 0.39688,0.25631 h -0.26459 -0.26458 l -0.39687,-0.25631 z m -45.078382,0.20153 0.15968,0.15968 0.15968,0.1602 -0.50695,-0.0212 -0.50694,-0.0207 0.34726,-0.13901 z m 46.401302,0.32763 h 0.26458 0.26458 l 0.39688,0.25683 0.39687,0.25632 h -0.26458 -0.26458 l -0.39688,-0.25632 z m 1.32291,0.54002 h 0.26459 0.26458 l 0.66146,0.37827 0.66146,0.37776 h -0.26459 -0.26458 l -0.66146,-0.37776 z m -54.380652,1.47175 0.14779,0.14831 0.14831,0.14779 -0.47439,0.18087 -0.47439,0.18035 0.32608,-0.32866 z m 57.952532,0.0832 0.79375,0.41083 0.79375,0.41031 v 0.12558 l -5.2e-4,0.12557 -0.0656,-0.0109 -0.0661,-0.0103 -0.72761,-0.3948 -0.7276,-0.39481 v -0.13074 z m 1.71979,1.04284 0.59531,0.28835 0.59532,0.28887 v 0.12299 0.12299 h -0.0822 -0.0816 l -0.51366,-0.41186 z m -62.951192,0.55862 -1.1343,1.11311 -1.1343,1.11363 v 0.18603 0.18604 l 0.39533,-0.0579 0.39532,-0.0584 0.79272,-0.75912 0.7922,-0.75913 -0.12713,-0.12712 -0.12712,-0.12713 0.29455,-0.35502 0.29456,-0.35501 h -0.22066 z m 64.713362,0.23461 0.0904,0.47801 0.0909,0.478 0.0202,0.0661 0.0207,0.0661 h 0.24081 0.24133 l -0.0656,-0.44906 -0.0661,-0.44856 -0.28629,-0.0956 z m 0.79375,0.52917 0.063,0.42943 0.0631,0.42994 0.77566,0.63407 0.77566,0.63407 0.231,0.009 0.23047,0.01 -0.36276,-0.46302 -0.25942,-0.33073 h -0.15245 -0.28318 l -0.2744,-0.33072 -0.27441,-0.33073 -0.003,-0.25839 -0.003,-0.25786 -0.26355,-0.0879 z m 1.5167,1.35288 h 0.0651 l -0.16898,-0.13229 z m 0.0651,0 0.28526,0.22376 0.45475,0.35605 -0.0455,0.17312 -0.0455,0.17312 3.42718,3.42821 3.4277,3.42822 0.185,0.0114 0.18552,0.0114 0.34365,0.38396 0.34416,0.38395 -0.46302,-0.35036 -0.46302,-0.35037 v 0.28164 0.28112 l 0.33073,0.2098 0.33073,0.21033 0.17621,0.004 0.17674,0.004 0.22014,0.24081 0.20102,0.21962 0.0475,-0.0475 0.46406,0.78548 0.46405,0.786 h -0.11679 -0.1173 l -0.44804,-0.68471 -0.44855,-0.6842 0.10129,-0.10128 0.0475,-0.0476 -0.30489,-0.17518 -0.33073,-0.19068 v 0.15347 0.154 l 0.6935,1.048 0.69401,1.04851 0.21394,-0.13229 0.21394,-0.13229 0.19172,0.30954 0.1912,0.31006 -0.33951,-0.20981 -0.34003,-0.21032 0.10077,0.24391 0.10025,0.24443 1.233,2.50476 1.23352,2.50476 0.80512,2.30166 0.80511,2.30219 0.54157,2.80448 0.54106,2.805 0.004,0.84646 0.004,0.84646 0.25683,-0.39688 0.25631,-0.39687 0.0248,0.52916 0.0258,0.52917 0.13539,-0.33641 0.13539,-0.33642 -0.2775,-0.79581 -0.27699,-0.79531 0.14935,-0.38964 0.14934,-0.38912 h -0.24598 -0.24598 l 0.005,-1.65364 0.005,-1.65365 -1.08882,-3.20497 -1.08934,-3.20446 -1.08779,-2.16369 -1.08779,-2.16369 -0.29714,0.18345 -0.29714,0.18397 0.20413,-0.33022 0.20412,-0.33021 -1.54771,-2.2903 -1.54719,-2.2903 -2.51871,-2.60862 -2.5182,-2.60811 -1.62522,-1.2945 -1.62471,-1.29398 -0.22737,0.008 -0.22686,0.008 0.51366,0.38861 0.51366,0.3886 z m 9.0656,9.33018 0.0258,0.015 -0.0196,-0.0212 z M 84.557128,49.505985 h 0.13229 0.13229 l -0.62115,0.66146 -0.62167,0.66145 h -0.13229 -0.13229 l 0.62166,-0.66145 z m -1.15032,1.89859 -0.44442,0.0651 -0.4439,0.0656 -0.37,1.0356 -0.37001,1.03611 0.16072,1.88722 0.16071,1.88774 0.50281,1.8123 0.5023,1.81229 -0.29352,0.1819 -0.29404,0.18138 -2.49339,0.18707 -2.49391,0.18707 -1.31361,-0.15555 -1.3131,-0.15554 -2.16472,-0.96532 -2.16421,-0.96531 -1.5875,-0.68058 -1.5875,-0.6811 -1.5875,-0.0987 -1.5875,-0.0982 -0.8599,0.5395 -0.8599,0.54002 v 0.60668 0.60616 l 0.42375,0.60565 0.42426,0.60565 2.81689,1.85983 2.8174,1.85932 0.59531,0.55035 0.59531,0.55036 v 0.49196 0.49247 l -0.42943,0.65526 -0.42943,0.65526 -2.47892,1.85467 -2.47892,1.85518 -0.447,0.68213 -0.447,0.68213 0.2713,0.43666 0.2713,0.43615 0.90124,0.61857 0.90124,0.61857 1.5875,-0.0987 1.5875,-0.0987 1.20199,-0.58342 1.20199,-0.58291 2.54042,-1.8123 2.53989,-1.81177 3.79822,-0.31936 3.79874,-0.31885 2.79879,-0.59324 2.79931,-0.59273 1.43402,0.63045 1.43454,0.63045 1.71979,0.36639 1.7198,0.36639 3.43958,0.003 3.439582,0.003 2.38125,-0.26613 2.38125,-0.26613 3.175,-0.53796 3.175,-0.53795 3.57188,-0.90433 3.57187,-0.90383 0.92397,-0.2744 0.9245,-0.27388 h 1.88515 1.88516 l 2.281,0.39791 2.28048,0.39739 1.74718,0.57361 1.74769,0.5736 1.46245,0.88109 1.46296,0.88056 0.1664,-0.006 0.16639,-0.006 -0.66145,-0.55552 -0.66146,-0.55604 0.66146,0.39532 0.66145,0.39584 v 0.24598 0.0744 0.17156 l 1.35031,1.37201 1.3503,1.37201 0.80926,1.52446 0.80977,1.52497 0.47697,1.5875 0.47697,1.5875 0.0822,33.444475 0.0816,33.44446 -0.39378,1.35548 -0.39429,1.35547 -0.79375,0.76068 -0.79426,0.76119 0.0977,0.15761 0.0977,0.15813 -0.56999,0.0636 -0.56999,0.0636 -2.1301,0.16019 -2.1301,0.16072 -1.01131,-0.42271 -1.01079,-0.4222 h -0.11576 -0.11575 l 0.18913,0.30541 0.18862,0.3054 -0.31006,-0.1912 -0.30954,-0.19172 0.13022,-0.21084 0.13023,-0.21084 -0.47801,-0.43305 -0.478,-0.43253 -0.1509,0.15038 -0.15038,0.15038 -0.19947,-0.32298 -0.19999,-0.32298 0.30593,0.18862 0.30541,0.18862 v -0.11524 -0.11575 l -0.41497,-0.99219 -0.41444,-0.99219 -0.231,-3.60391 -0.23151,-3.60443 -0.29765,-1.45521 -0.29714,-1.45521 -0.68885,-2.2257 -0.68884,-2.22519 -1.22009,-2.40502 -1.22008,-2.40451 h -0.30075 -0.30076 l -0.22066,-0.24081 -0.22014,-0.24081 0.33073,0.19017 0.33073,0.19017 v -0.1757 -0.17622 l -0.83768,-1.09606 -0.83819,-1.09657 -1.74149,-1.80919 -1.74202,-1.80868 -1.5012,-1.16788 -1.50171,-1.16737 h -0.16795 -0.16795 l 0.19017,0.33072 0.19068,0.33073 -0.24081,-0.22065 -0.24081,-0.22015 v -0.2806 -0.28009 l -2.3673,-1.26864 -2.36678,-1.26918 -2.41277,-0.80046 -2.41329,-0.79995 -2.33216,-0.4067 -2.33267,-0.40669 h -3.10524 -3.105752 l -2.33267,0.40669 -2.33216,0.4067 -2.41277,0.79995 -2.41329,0.80046 -2.36678,1.26918 -2.36678,1.26864 v 0.28009 0.2806 l -0.24082,0.22015 -0.24133,0.22065 0.19069,-0.33073 0.19017,-0.33072 h -0.16795 -0.16795 l -1.5012,1.16737 -1.5012,1.16788 -1.74201,1.80868 -1.74201,1.80919 -0.83768,1.09657 -0.83767,1.09606 v 0.17622 0.1757 l 0.33073,-0.19017 0.33073,-0.19017 -0.22066,0.24081 -0.22066,0.24081 h -0.30081 -0.30075 l -1.22008,2.40451 -1.21957,2.40502 -0.68885,2.22519 -0.68884,2.2257 -0.29766,1.45521 -0.29765,1.45521 -0.231,3.60443 -0.23151,3.60391 -0.41444,0.99219 -0.41445,0.99219 v 0.11575 0.11524 l 0.30541,-0.18862 0.30541,-0.18862 -0.19999,0.32298 -0.19947,0.32298 -0.15038,-0.15038 -0.15038,-0.15038 -0.47852,0.43253 -0.47801,0.43305 0.13022,0.21084 0.13023,0.21084 -0.30954,0.19172 -0.31006,0.1912 0.18913,-0.3054 0.18862,-0.30541 h -0.11575 -0.11524 l -0.94981,0.39687 -0.94982,0.39688 h -1.47226 -1.47226 l -0.85163,-0.36019 -0.85111,-0.3607 -0.49867,-0.55914 -0.49817,-0.55965 -0.21084,0.13022 -0.21135,0.13074 -0.1912,-0.31005 -0.19172,-0.30955 0.30592,0.18862 0.30541,0.18862 v -0.26458 -0.26459 l -0.26149,-0.16123 -0.26096,-0.16123 -0.59893,-1.90479 -0.59841,-1.90479 0.0294,-5.55625 0.0295,-5.55625 0.44803,-3.81114 0.44752,-3.81062 0.51883,-2.53938 0.51883,-2.53886 0.81287,-2.64584 0.81287,-2.64582 1.28468,-2.67582 1.28467,-2.67579 1.62419,-2.15542 1.62419,-2.15543 1.30277,-1.09812 1.30276,-1.09864 -0.13126,-0.13178 -0.13126,-0.13126 0.29456,-0.35501 0.29456,-0.35502 h -0.24133 -0.24133 l -1.9079,1.74098 -1.90737,1.74149 v 0.27544 0.27543 l 0.46302,-0.36276 0.29455,-0.231 h -0.0765 l 1.30328,-1.32291 1.30277,-1.32292 h 0.13229 0.13229 l -1.30276,1.32292 -1.30328,1.32291 h -0.12351 l -0.25683,0.32763 -0.3607,0.46044 -0.21756,-0.13436 -0.21756,-0.13436 -0.67851,0.88987 -0.67851,0.88987 v 0.18862 0.18913 l 0.33073,-0.19017 0.19843,-0.1142 v -0.17105 -0.26769 l 0.59532,-0.50384 0.59531,-0.50385 -0.52658,0.66146 -0.52607,0.66146 -0.0434,0.0692 0.0377,-0.0217 -0.077,0.0842 -0.0553,0.0884 v -0.0284 l -0.0884,0.0966 -0.22066,0.24082 h -0.3023 -0.3023 l -1.3839,2.64583 -1.38389,2.64583 -1.04852,3.175 -1.04903,3.17499 -0.54932,2.77813 -0.54932,2.77812 -0.42375,3.57188 -0.42375,3.57187 -0.0403,5.55625 -0.0398,5.55625 0.36639,1.45521 0.3669,1.45521 0.524,1.05833 0.524,1.05834 0.40153,0.45682 0.40101,0.45682 0.23616,-0.14573 0.23564,-0.14573 -0.0729,0.32763 -0.0724,0.32763 1.05834,0.6134 1.05833,0.61288 1.5875,0.003 1.5875,0.003 0.99942,-0.27802 0.99942,-0.2775 0.96273,-0.84543 0.96274,-0.84542 0.47697,-1.07797 0.47697,-1.07797 0.2589,-3.81683 0.2589,-3.81682 0.39843,-1.85208 0.39842,-1.85208 0.63614,-1.85209 0.63562,-1.85208 0.86713,-1.71979 0.86661,-1.71979 0.75861,-1.10588 0.75861,-1.10587 v -0.18346 -0.18293 l -0.46302,0.36329 -0.46302,0.36276 0.35605,-0.45423 0.35605,-0.45475 0.17312,0.0434 0.17312,0.0434 2.89594,-2.89595 2.89595,-2.89646 -0.0434,-0.17312 -0.0434,-0.17311 0.45475,-0.35605 0.45475,-0.35605 -0.36328,0.46302 -0.36329,0.46302 h 0.18346 0.18293 l 1.18597,-0.81597 1.18649,-0.81597 2.03657,-1.01802 2.03657,-1.01854 2.11408,-0.68885 2.11409,-0.68885 2.22002,-0.38758 2.22002,-0.38704 h 3.105752 3.10524 l 2.22002,0.38704 2.22002,0.38758 2.07274,0.67645 2.07222,0.67644 2.11202,1.05369 2.11202,1.05367 1.15238,0.79323 1.15238,0.79272 h 0.18294 0.18344 l -0.36327,-0.46302 -0.36278,-0.46302 0.45423,0.35605 0.45476,0.35605 -0.0434,0.17311 -0.0434,0.17312 2.89595,2.89646 2.89646,2.89595 0.1726,-0.0434 0.17312,-0.0434 0.35605,0.45475 0.35656,0.45423 -0.46302,-0.36276 -0.46302,-0.36329 v 0.18293 0.18346 l 0.7581,1.10587 0.75861,1.10588 0.86713,1.71979 0.86661,1.71979 0.63562,1.85208 0.63614,1.85209 0.39842,1.85208 0.39843,1.85208 0.2589,3.81682 0.25889,3.81683 0.47698,1.07797 0.47697,1.07797 0.96273,0.84542 0.96325,0.84543 0.99942,0.2775 0.99943,0.27802 1.85208,-0.004 1.85208,-0.004 1.14257,-0.51883 1.14308,-0.51831 -0.14469,-0.2341 -0.14418,-0.23409 0.47801,-0.43253 0.47852,-0.43305 0.15813,0.15865 0.15865,0.15864 0.61391,-1.15032 0.61392,-1.1498 V 114.06499 80.066025 l -0.47129,-1.70739 -0.47129,-1.70687 -0.74052,-1.46813 -0.74052,-1.46761 -0.28422,0.0574 -0.28423,0.0579 -0.35605,-0.45475 -0.35605,-0.45424 0.46302,0.36277 0.46303,0.36329 v -0.26459 -0.26458 l -0.35554,-0.29456 -0.35502,-0.29507 -0.13642,0.13643 -0.13643,0.13642 -0.36793,-0.46922 -0.26459,-0.33693 h -0.0579 -0.0863 l -0.64131,-0.7276 -0.6413,-0.72761 0.7276,0.64131 0.72761,0.6413 v 0.0863 0.0579 l 0.33072,0.2589 0.46303,0.36328 v -0.28267 -0.28215 l -1.50689,-1.22732 -1.50688,-1.22731 -1.60094,-0.80822 -1.60094,-0.80822 -1.37821,-0.47439 -1.37872,-0.47439 -2.61173,-0.43666 -2.61224,-0.43667 -2.096,0.1111 -2.096,0.11111 -4.1832,1.09967 -4.18269,1.09968 -3.09336,0.5271 -3.09283,0.5271 -2.38125,0.26561 -2.38125,0.26614 -3.337772,0.002 -3.33727,0.003 -1.37614,-0.26097 -1.37614,-0.26096 -1.6366,-0.69299 -1.63607,-0.69246 -0.74569,-0.13746 -0.74569,-0.13746 -1.63556,-1.64641 -1.63556,-1.64641 -0.70435,-1.42937 -0.70384,-1.42989 -0.57205,-2.35903 -0.57154,-2.35903 -0.14522,-1.74201 -0.14572,-1.74201 0.42891,-1.02474 0.42943,-1.02423 v -0.077 z m 56.356252,20.56257 -0.1323,-0.10387 0.10387,0.13229 h 0.0284 z m -74.877092,37.129525 0.0553,-0.0599 0.0134,-0.0217 0.0258,-0.0408 -0.0946,0.0543 z m 1.88051,-2.44068 0.10387,-0.13229 -0.16847,0.13229 h 0.0558 z m 86.358032,-55.165635 0.72761,0.64131 0.7276,0.6413 v 0.0863 0.0863 h -0.0863 -0.0863 l -0.6413,-0.7276 z m 1.5875,1.32292 1.91823,1.84485 1.91823,1.84485 v 0.0734 0.0734 h -0.0734 -0.0734 l -1.84485,-1.91823 z m -72.556292,0.52917 0.11472,0.59531 0.11472,0.59531 -0.11472,0.59531 -0.11472,0.59532 v -1.19063 z m 0.2341,2.91041 0.13384,0.33073 0.13332,0.33073 -0.13332,0.33073 -0.13384,0.33073 v -0.66146 z m 76.026362,0.52917 0.7276,0.6413 0.72761,0.64131 v 0.0863 0.0863 h -0.0863 -0.0863 l -0.64131,-0.72761 z m -75.761782,1.05833 0.13901,0.34727 0.13901,0.34726 -0.15968,0.15968 -0.15968,0.15968 0.0207,-0.50694 z m -17.34571,0.71004 1.22938,0.22944 1.22938,0.22944 3.12333,1.42627 3.12332,1.42627 1.42007,0.33797 1.42007,0.33848 2.28409,-0.1726 2.2841,-0.17312 1.07591,-0.14831 1.07642,-0.14883 1.03559,1.77147 1.03611,1.77095 1.54255,1.42834 1.54305,1.42885 -0.34726,0.13178 -0.34778,0.13177 -1.85209,0.39119 -1.85208,0.39171 -3.57188,0.293 -3.57187,0.29301 -0.53382,0.0977 -0.53382,0.0971 -2.61844,1.85984 -2.61845,1.85983 -1.08107,0.5054 -1.08107,0.50539 -0.92604,0.13539 -0.92604,0.1354 -0.67024,-0.20258 -0.66973,-0.20308 -0.58704,-0.36639 -0.58653,-0.3669 v -0.28112 -0.28112 l 0.85989,-0.7953 0.8599,-0.7953 1.05833,-0.75138 1.05834,-0.75137 1.2454,-1.19631 1.24592,-1.19683 0.16639,-0.75913 0.16692,-0.75912 -0.43305,-0.66043 -0.43253,-0.66094 -2.98793,-1.97301 -2.98793,-1.973 -0.46251,-0.51108 -0.46198,-0.51056 0.093,-0.48266 0.093,-0.48266 0.93534,-0.30644 z m 18.13946,1.9358 0.13901,0.34726 0.13901,0.34727 -0.15968,0.15968 -0.15968,0.15968 0.0207,-0.50695 z m 79.602892,2.77812 h 0.12609 0.12609 l 0.81494,1.61437 0.81494,1.61386 -0.0972,0.0971 -0.0971,0.0971 -0.84387,-1.71152 z m -39.95673,3.13056 0.33072,0.13384 0.33073,0.13333 h -0.66145 -0.66146 l 0.33073,-0.13333 z m 2.39055,0.01 0.72295,0.11007 0.72295,0.10955 -1.5875,-0.003 -1.5875,-0.003 0.86455,-0.10697 z m 2.90111,0.25476 0.33073,0.13384 0.33073,0.13333 h -0.66146 -0.66146 l 0.33073,-0.13333 z m -7.11068,0.25373 0.15969,0.15968 0.15968,0.1602 -0.50695,-0.0212 -0.50695,-0.0207 0.34727,-0.13901 z m 8.73125,0 0.15969,0.15968 0.15968,0.1602 -0.50695,-0.0212 -0.50695,-0.0207 0.34727,-0.13901 z m 1.32292,0.26459 0.15968,0.15968 0.15968,0.16019 -0.50694,-0.0212 -0.50695,-0.0207 0.34727,-0.13901 z m -11.90625,0.26458 0.15968,0.15968 0.15968,0.1602 -0.50694,-0.0212 -0.50695,-0.0207 0.34727,-0.13901 z m -1.05833,0.26458 0.15968,0.15968 0.15968,0.1602 -0.50695,-0.0212 -0.50694,-0.0207 0.34726,-0.13901 z m -1.05834,0.26459 0.15969,0.15968 0.15968,0.16019 -0.50695,-0.0212 -0.50695,-0.0207 0.34727,-0.13901 z m -1.05833,0.26458 0.15968,0.15968 0.15968,0.1602 -0.50694,-0.0212 -0.50695,-0.0207 0.34727,-0.13901 z m -1.32292,0.26458 0.15969,0.15968 0.15968,0.1602 -0.50695,-0.0212 -0.50695,-0.0207 0.34727,-0.13901 z m 20.1011,0.0553 0.78083,0.40359 0.78084,0.40359 v 0.12558 l -5.2e-4,0.12557 -0.0656,-0.0114 -0.0661,-0.0109 -0.92604,-0.50695 -0.92604,-0.50694 0.21136,-0.0114 z m -21.15943,0.20929 0.15968,0.15968 0.15968,0.16019 -0.50694,-0.0212 -0.50695,-0.0207 0.34727,-0.13901 z m -1.32292,0.26458 0.15969,0.15968 0.15968,0.1602 -0.50695,-0.0212 -0.50695,-0.0207 0.34727,-0.13901 z m -1.62057,0.27544 0.33073,0.13384 0.33073,0.13332 h -0.66146 -0.66146 l 0.33073,-0.13332 z m -1.5875,0.26458 0.33073,0.13384 0.33073,0.13333 h -0.66146 -0.66146 l 0.33073,-0.13333 z m -1.84226,0.2682 0.32556,0.13177 0.32608,0.13178 -0.79375,-0.01 -0.79375,-0.01 0.46767,-0.12195 z m -12.676752,0.25011 0.15968,0.15968 0.15968,0.1602 -0.50694,-0.0212 -0.50695,-0.0207 0.34727,-0.13901 z m 10.285682,0.0165 0.46302,0.12092 0.46302,0.12093 h -0.92604 -0.92604 l 0.46302,-0.12093 z m -8.466672,0.26613 0.59532,0.11473 0.59531,0.11472 h -1.19063 -1.19062 l 0.59531,-0.11472 z m 5.027092,0.004 0.85989,0.10645 0.8599,0.10697 h -1.71979 -1.719792 l 0.859892,-0.10697 z m 64.86477,0.69505 0.13849,0.34726 0.13901,0.34727 -0.15968,0.15968 -0.15968,0.15968 0.0207,-0.50694 z m 0.52917,2.11667 0.13849,0.34726 0.13901,0.34727 -0.15968,0.15968 -0.15968,0.15968 0.0207,-0.50695 z m -25.69973,0.92604 h 0.12351 0.12351 l 0.55293,1.08365 0.55294,1.08417 -0.10077,0.10077 -0.10077,0.10077 -0.57567,-1.18494 z m 25.96431,0.13229 0.13849,0.34726 0.13901,0.34727 -0.15968,0.15968 -0.15968,0.15968 0.0207,-0.50694 z m -24.0776,3.96875 0.13901,0.34726 0.13901,0.34727 -0.15968,0.15968 -0.15968,0.15968 0.0207,-0.50694 z m 0.28422,1.32292 0.12196,0.46767 0.12195,0.46819 -0.13177,0.32556 -0.13178,0.32608 0.01,-0.79375 z m 24.60625,0.79375 v 0.92604 0.0558 0.87023 0.0558 0.92604 l 0.12144,-0.46302 0.12092,-0.46302 -0.12092,-0.46302 -0.007,-0.0279 0.007,-0.0279 0.12092,-0.46302 -0.12092,-0.46302 z m -24.27449,1.85208 0.0703,16.07344 0.0703,16.073445 -0.0703,16.07343 -0.0703,16.07343 v -32.14686 z m 23.69261,1.51102 -0.01,0.92604 -0.0103,0.92604 -0.005,0.66146 h 0.24856 0.26459 l -0.0129,-0.46302 -0.0129,-0.46302 0.12764,-0.79375 0.12712,-0.79375 -0.12454,0.36948 -0.12505,0.36897 -0.2341,-0.36897 z m -0.0248,2.51354 -0.0115,1.57042 z m -0.003,-0.23823 -0.491,67.254295 -0.49919,2.24896 -0.69867,1.85208 -0.69866,1.85208 -1.04542,1.93839 -1.04541,1.93838 v 0.0682 0.0677 h 0.40876 0.40876 l 0.9741,-1.74201 0.97462,-1.7415 1.00717,-2.91042 1.00718,-2.91041 -0.15762,-1.12448 0.37219,-66.652995 z m -83.985642,7.34064 -3.43958,0.0186 -3.43959,0.0191 -2.77812,0.58395 -2.77813,0.58394 -3.28765,1.08934 -3.28714,1.08986 -3.59203,1.78645 -3.59151,1.786465 -2.06809,1.36891 -2.06809,1.36839 0.14728,0.14779 0.14779,0.14728 -0.29456,0.35502 -0.29507,0.35502 h -0.28267 -0.15296 l -0.25942,0.33071 -0.36328,0.46304 h 0.18242 0.18241 l 0.90589,-0.69092 0.90589,-0.69091 -0.13436,-0.21653 -0.13384,-0.21704 0.30954,-0.19172 0.17622,-0.10852 h -0.0656 l 0.52193,-0.35658 0.52193,-0.35604 0.72761,-0.46819 0.7276,-0.46767 v 0.12764 0.12765 l -1.05265,0.69659 -1.05265,0.6966 h -0.19688 -0.0486 l -0.13746,0.22273 -0.18914,0.30541 h 0.11937 0.11938 l 2.34352,-1.47898 2.34404,-1.4795 2.92127,-1.411295 2.92179,-1.41128 3.17965,-1.06299 3.18017,-1.06298 2.62981,-0.53072 2.62981,-0.5302 2.26498,-0.1788 2.26498,-0.17828 1.90118,0.32091 1.90117,0.32039 0.14883,0.24082 0.14883,0.24081 0.31522,-0.008 0.14315,-0.004 0.16226,0.51005 0.1788,0.5643 -0.7462,0.74208 -0.7457,0.74259 -3.16518,0.8692 -3.16518,0.86919 -1.8619,0.66146 -1.8619,0.661475 -1.60972,0.88831 -1.60972,0.88832 v 0.416 0.41599 l 0.15451,-0.0868 0.15451,-0.0863 2.51354,-1.22887 2.51354,-1.22835 4.06539,-1.177195 4.0659,-1.17719 0.6966,-0.51522 0.69711,-0.51573 0.33332,-0.67954 0.33331,-0.67903 -0.26613,-0.70073 -0.26614,-0.70022 -1.2578,-0.57309 z m -29.20597,9.378245 0.0512,-0.0827 -0.13384,0.0827 z m -1.85415,1.32189 0.10387,-0.13231 -0.16847,0.13231 z m -0.0646,0 h -0.0651 l 0.51366,-0.38861 0.51367,-0.38809 -0.23565,-0.008 -0.23512,-0.008 -1.85209,1.49655 -1.85208,1.49603 -2.02365,2.0097 -2.02313,2.00918 -1.51154,1.88102 -1.51153,1.88154 0.008,0.23513 0.008,0.23564 0.3886,-0.51366 0.38861,-0.51367 v 0.0641 l 0.23616,-0.30076 0.36845,-0.46922 0.13901,0.139 0.13953,0.13954 0.48421,-0.43873 0.48472,-0.43823 v -0.26457 -0.26459 l -0.59531,0.50385 -0.59531,0.50384 0.49454,-0.58446 0.49454,-0.58497 0.18811,0.0558 0.18862,0.0553 2.75642,-2.75642 2.75693,-2.75694 -0.0558,-0.1881 -0.0558,-0.18862 0.58498,-0.49454 0.58498,-0.49455 -0.50436,0.59532 -0.50385,0.59531 h 0.26458 0.26459 l 0.43821,-0.48421 0.43874,-0.48472 -0.13953,-0.13901 -0.13901,-0.13953 0.46922,-0.36845 z m -9.48883,9.48882 -0.13229,0.16847 0.13229,-0.10387 z m 0,0.0646 v 0.15399 0.28267 l -0.35501,0.29508 -0.35554,0.29455 -0.13539,-0.13539 -0.13539,-0.13539 -0.6997,1.05781 -0.70022,1.05834 v 0.1142 0.11421 l 0.39688,-0.0584 0.39636,-0.0584 0.3886,-0.51367 0.38861,-0.51366 0.008,-0.21394 0.009,-0.21394 -0.30541,0.18862 -0.30592,0.18913 0.19172,-0.31005 0.1912,-0.30955 0.21704,0.13385 0.21704,0.13384 0.69092,-0.90589 0.69091,-0.90537 v -0.18242 -0.18243 l -0.46302,0.3633 z m 37.30625,-20.170875 0.72761,0.11007 0.7276,0.11007 h -1.45525 -1.45521 l 0.72761,-0.11007 z m 2.91042,0.25528 0.33073,0.13384 0.33073,0.13333 h -0.66146 -0.66146 l 0.33073,-0.13333 z m -6.08542,0.006 0.46302,0.12092 0.46302,0.12092 h -0.92608 -0.92604 l 0.46302,-0.12092 z m -1.85208,0.2589 0.33073,0.13384 0.33073,0.13332 h -0.66146 -0.66146 l 0.33073,-0.13332 z m -1.28984,0.25373 0.15968,0.15968 0.15968,0.16019 -0.50695,-0.0212 -0.50695,-0.0207 0.34727,-0.13901 z m 10.71355,0.0543 h 0.27389 0.2744 l 0.50385,0.57464 0.50436,0.57464 -0.35915,-0.21084 -0.27027,-0.15865 0.10025,-0.003 -0.51366,-0.38861 z m -12.03647,0.21032 0.15968,0.15968 0.15968,0.1602 -0.50695,-0.0212 -0.50694,-0.0207 0.34726,-0.13901 z m -1.05833,0.26458 0.15968,0.15968 0.15968,0.1602 -0.50695,-0.0212 -0.50695,-0.0207 0.34727,-0.13901 z m -1.85209,0.52917 0.15968,0.15968 0.15968,0.1602 -0.50694,-0.0212 -0.50695,-0.0207 0.34727,-0.13901 z m -2.8112,0.8568 h 0.26459 0.26458 l -0.39687,0.25683 -0.39688,0.25631 h -0.26462 -0.26458 l 0.39687,-0.25631 z m 19.21279,0.12454 -0.10181,0.39687 -0.1018,0.39688 -0.87902,0.59531 -0.8785,0.59531 -0.29145,-0.0119 -0.29146,-0.0119 0.97876,-0.51676 0.97823,-0.51677 0.29352,-0.46354 z m -23.18154,1.47743 h 0.26459 0.26458 l -0.92604,0.50694 -0.92604,0.50695 h -0.26459 -0.26458 l 0.92604,-0.50695 z m 18.42162,0.98081 0.15968,0.15968 0.15968,0.1602 -0.50695,-0.0212 -0.50694,-0.0207 0.34726,-0.13901 z m -20.40599,0.0444 v 0.1323 0.13229 l -1.05833,0.54002 -1.05834,0.540025 v -0.132305 -0.13229 l 1.05834,-0.54002 z m 19.34766,0.22015 0.15968,0.15968 0.15968,0.16019 -0.50695,-0.0212 -0.50695,-0.0207 0.34727,-0.13901 z m -1.85209,0.52916 0.15968,0.15968 0.15968,0.1602 -0.50694,-0.0212 -0.50695,-0.0207 0.34727,-0.13901 z m -2.01745,0.592225 h 0.26459 0.26458 l -0.39687,0.25683 -0.39688,0.25632 h -0.26462 -0.26458 l 0.39687,-0.25632 z m -18.38857,0.2374 v 0.13229 0.13229 l -0.52917,0.28319 -0.52917,0.28319 v -0.1323 -0.13229 l 0.52917,-0.28318 z m 17.06562,0.29094 h 0.26459 0.26458 l -0.39688,0.25683 -0.39687,0.25631 h -0.26458 -0.26459 l 0.39688,-0.25631 z m -2.51354,1.29656 v 0.13229 0.13229 l -0.52917,0.28319 -0.52916,0.28318 v -0.13229 -0.13229 l 0.52916,-0.28319 z m -1.62987,0.78238 -0.30955,0.10284 -0.30954,0.10335 -0.004,0.24236 -0.004,0.24288 -0.2098,0.33073 -0.21033,0.33073 h 0.26459 0.26458 l 0.20671,-0.33073 0.2067,-0.33073 0.0522,-0.34571 z m -21.26796,3.46955 h 0.1323 0.13229 l -2.36988,2.38126 -2.3704,2.38125 h -0.13229 -0.1323 l 2.3704,-2.38125 z m 14.44977,3.70417 h 0.13229 0.13229 l -0.28319,0.52917 -0.28318,0.52917 h -0.13229 -0.1323 l 0.28319,-0.52917 z m -0.80357,1.32292 h 0.13229 0.13229 l -0.69763,1.38906 -0.69815,1.38906 -0.10025,0.11007 -0.10025,0.11008 v -0.18501 -0.185 l 0.66559,-1.31413 z m 34.91621,3.40238 0.59532,0.11472 0.59531,0.11472 h -1.19063 -1.19062 l 0.59531,-0.11472 z m 4.762502,0 0.59531,0.11472 0.59532,0.11472 h -1.19063 -1.19062 l 0.59531,-0.11472 z m -7.143752,0.25734 0.33073,0.13385 0.33073,0.13332 h -0.66146 -0.66145 l 0.33073,-0.13332 z m 9.525002,0 0.33073,0.13385 0.33073,0.13332 h -0.66146 -0.66146 l 0.33073,-0.13332 z m -10.814842,0.25374 0.15968,0.15968 0.15968,0.16019 -0.50694,-0.0212 -0.50695,-0.0207 0.34727,-0.13901 z m 12.435412,0 0.15969,0.15968 0.15968,0.16019 -0.50695,-0.0212 -0.50695,-0.0207 0.34727,-0.13901 z m -13.758332,0.26458 0.15968,0.15968 0.15968,0.1602 -0.50694,-0.0212 -0.50695,-0.0207 0.34727,-0.13901 z m 15.081252,0 0.15968,0.15968 0.15968,0.1602 -0.50694,-0.0212 -0.50695,-0.0207 0.34727,-0.13901 z m -66.907542,0.0326 0.14831,0.1478 0.1478,0.14831 -0.32867,0.32608 -0.32866,0.32659 0.18087,-0.47439 z m 70.446342,1.35341 h 0.26459 0.26458 l 0.39688,0.25683 0.39687,0.25632 h -0.26458 -0.26459 l -0.39687,-0.25632 z m -70.776042,0.0388 -0.46302,0.062 -0.46302,0.0625 -1.8712,3.68452 -1.8712,3.68504 -0.97669,3.04271 -0.97668,3.04271 -0.54157,2.51044 -0.54209,2.51096 0.17777,1.29346 0.17828,1.29346 -0.29507,-0.18242 -0.29559,-0.18241 0.0475,0.87591 0.0475,0.87643 -0.14159,0.92605 -0.1416,0.92604 0.12816,-0.52917 0.12816,-0.52917 0.18913,0.51935 0.18862,0.51987 0.18449,-2.23966 0.18397,-2.23914 0.64285,-3.175 0.64286,-3.175 0.82682,-2.4784 0.8263,-2.47892 0.91933,-2.15129 0.91932,-2.15181 1.17409,-2.03863 1.17409,-2.03811 v -0.12092 z m -0.77514,0.48266 h 0.13229 0.13229 l -0.28319,0.52916 -0.28318,0.52917 h -0.13229 -0.1323 l 0.28319,-0.52917 z m 46.86174,0.2253 0.10438,0.10439 0.10439,0.10439 -0.92294,0.44028 -0.92243,0.43977 v -0.12093 -0.12144 l 0.81804,-0.42323 z m 26.964242,0.0393 0.78083,0.40359 0.78083,0.40359 v 0.12558 0.12557 l -0.0661,-0.0114 -0.0662,-0.0109 -0.92604,-0.50694 -0.92604,-0.50694 0.21135,-0.0114 z m -53.959492,0.66146 0.13901,0.34726 0.139,0.34726 -0.15968,0.15968 -0.15968,0.15968 0.0207,-0.50695 z m 56.182612,0.63199 0.59531,0.28835 0.59532,0.28888 v 0.12299 0.12299 h -0.0822 -0.0816 l -0.51366,-0.41187 z m -31.617712,0.0108 v 0.13229 0.1323 l -0.52916,0.28318 -0.52917,0.28319 v -0.13229 -0.13229 l 0.52917,-0.28319 z m -45.50109,0.28319 h 0.13229 0.13229 l -0.82889,1.65364 -0.82889,1.65365 -0.10077,0.11007 -0.10077,0.11007 v -0.18397 -0.18345 l 0.79737,-1.58026 z m 20.40702,0.92604 0.13901,0.34727 0.13901,0.34726 -0.15968,0.15968 -0.15968,0.15968 0.0207,-0.50694 z m 59.886782,0.79375 0.59531,0.50385 0.59532,0.50384 v 0.0915 0.0915 h -0.0915 -0.0915 l -0.50384,-0.59532 z m -38.150642,0.13229 h 0.13229 0.13229 l -0.47852,0.52917 -0.47904,0.52917 h -0.13229 -0.13229 l 0.47904,-0.52917 z m -22.00072,0.13229 0.13901,0.34727 0.139,0.34727 -0.15968,0.15968 -0.15968,0.15968 0.0207,-0.50695 z m 61.474282,0.79375 1.65364,1.57924 1.65365,1.57923 v 0.0744 0.0744 h -0.0744 -0.0744 l -1.57923,-1.65365 z m -40.762372,0.1323 h 0.13229 0.13229 l -1.57096,1.5875 -1.57096,1.5875 h -0.1323 -0.13229 l 1.57097,-1.5875 z m -20.9765,0.13229 0.13901,0.34726 0.13901,0.34727 -0.15968,0.15968 -0.15968,0.15968 0.0207,-0.50695 z m -0.26458,1.32291 0.13901,0.34727 0.13901,0.34727 -0.15968,0.15968 -0.15968,0.15968 0.0207,-0.50695 z m -0.26458,1.32292 0.13384,0.33073 0.13332,0.33073 -0.13332,0.33073 -0.13384,0.33073 v -0.66146 z m 65.443032,0.52917 0.59531,0.50384 0.59531,0.50385 v 0.0915 0.0915 h -0.0915 -0.0915 l -0.50385,-0.59531 z m -47.146482,0.13229 h 0.13229 0.1323 l -0.47853,0.52917 -0.47904,0.52916 h -0.13229 -0.13229 l 0.47904,-0.52916 z m -18.56114,0.92604 0.13384,0.33073 0.13333,0.33073 -0.13333,0.33073 -0.13384,0.33073 v -0.66146 z m -0.24494,1.5875 0.12144,0.46302 0.12092,0.46302 -0.12092,0.46302 -0.12144,0.46302 v -0.92604 z m 16.36179,0.66146 h 0.13229 0.13229 l -0.28319,0.52917 -0.28318,0.52916 h -0.13229 -0.1323 l 0.28319,-0.52916 z m 52.085712,0 h 0.13229 0.13229 l 0.28319,0.52917 0.28318,0.52916 h -0.13229 -0.13229 l -0.28319,-0.52916 z m -91.485892,0.39687 0.13901,0.34727 0.13901,0.34727 -0.15968,0.15968 -0.15968,0.15968 0.0207,-0.50695 z m 22.7738,1.32292 0.12144,0.46302 0.12093,0.46302 -0.12093,0.46302 -0.12144,0.46302 v -0.92604 z m -23.56755,1.85208 0.13901,0.34727 0.13901,0.34727 -0.15968,0.15968 -0.15968,0.15968 0.0207,-0.50695 z m 38.31497,0.26459 v 0.26458 0.26458 l -0.25631,0.39688 -0.25683,0.39687 v -0.26458 -0.26458 l 0.25683,-0.39688 z m 56.115952,0 0.28061,0.48266 0.28112,0.48317 -0.12403,0.12351 -0.12402,0.12402 -0.16485,-0.42995 -0.16484,-0.42995 0.008,-0.17673 z m -71.109862,0.79375 0.11007,0.7276 0.11058,0.72761 -0.11058,0.7276 -0.11007,0.7276 v -1.4552 z m -23.58564,0.26458 0.13901,0.34727 0.139,0.34726 -0.15968,0.15968 -0.15968,0.15968 0.0207,-0.50694 z m -0.26459,1.32292 0.13384,0.33073 0.13333,0.33073 -0.13333,0.33072 -0.13384,0.33073 v -0.66145 z m 37.30625,1.32291 0.13901,0.34727 0.13901,0.34727 -0.15968,0.15968 -0.15968,0.15968 0.0207,-0.50695 z m 59.002082,0 0.13901,0.34727 0.13901,0.34727 -0.15968,0.15968 -0.15968,0.15968 0.0207,-0.50695 z m -59.266662,1.05834 0.13901,0.34726 0.13901,0.34727 -0.15968,0.15968 -0.15968,0.15968 0.0207,-0.50695 z m 59.531252,0 0.13901,0.34726 0.13901,0.34727 -0.15968,0.15968 -0.15968,0.15968 0.0207,-0.50695 z m -59.795832,1.05833 0.13384,0.33073 0.13332,0.33073 -0.13332,0.33073 -0.13384,0.33073 v -0.66146 z m 60.060412,0 0.13384,0.33073 0.13333,0.33073 -0.13333,0.33073 -0.13384,0.33073 v -0.66146 z m -73.238422,0.52917 0.10128,1.13119 0.10181,1.13172 -0.10336,0.98495 -0.10335,0.98547 0.002,-2.11667 z m 41.54372,0.28783 -1.2361,0.47233 -1.23662,0.4718 -0.90796,1.06092 -0.90795,1.06092 -0.2682,1.23351 -0.2682,1.23352 -0.15968,2.87476 -0.15968,2.87528 -0.38603,2.01693 -0.38602,2.01693 -0.66817,2.0066 -0.66818,2.00659 -1.05213,2.05724 -1.05214,2.05776 v 0.0615 0.062 h 0.41548 0.416 l 0.94516,-1.8743 0.94516,-1.87379 0.75396,-2.22725 0.75396,-2.22726 0.39429,-2.07894 0.39429,-2.07894 0.16278,-2.96985 0.16278,-2.96984 0.24547,-0.9803 0.24546,-0.98031 0.64699,-0.76894 0.64699,-0.76895 -0.0191,-0.0191 0.32763,-0.11937 0.36793,-0.13333 -0.0429,-0.23151 -0.0429,-0.23151 1.10123,-0.11162 1.10122,-0.11162 h 1.190622 1.19063 l 1.1007,0.11162 1.10123,0.11162 -0.0429,0.23151 -0.0424,0.23151 0.36742,0.13333 0.27699,0.10077 0.60513,0.71933 0.72089,0.85628 0.24494,0.98031 0.24547,0.9803 0.16278,2.96984 0.16278,2.96985 0.40307,2.1239 0.40256,2.1239 0.68523,2.05 0.68523,2.05001 1.00511,2.00608 1.0051,2.00659 h 0.416 0.41651 v -0.062 -0.0615 l -1.05265,-2.05776 -1.05213,-2.05724 -0.66818,-2.00659 -0.66817,-2.0066 -0.38602,-2.01693 -0.38551,-2.01693 -0.15968,-2.87528 -0.15968,-2.87476 -0.26872,-1.23352 -0.2682,-1.23351 -0.90795,-1.06092 -0.90796,-1.06092 -1.23662,-0.4718 -1.2361,-0.47233 h -1.75493 z m 0.20102,0.31833 0.15968,0.1602 0.15968,0.15968 -0.50695,-0.0212 -0.50694,-0.0207 0.34726,-0.13901 z m 3.439582,0 0.15968,0.1602 0.15968,0.15968 -0.50695,-0.0212 -0.50694,-0.0207 0.34726,-0.13901 z m -32.270902,0.45217 0.13384,0.33073 0.13333,0.33073 -0.13333,0.33073 -0.13384,0.33073 v -0.66146 z m 60.589582,0 0.13385,0.33073 0.13332,0.33073 -0.13332,0.33073 -0.13385,0.33073 v -0.66146 z m -26.58494,0.26458 0.19689,0.17622 0.19689,0.17622 -0.0884,0.10387 -0.0243,0.0284 -0.0692,-0.11989 z m -7.241412,0.0507 -0.21033,0.33951 -0.18913,0.30644 -0.10439,-0.10438 -0.14263,-0.14263 0.3235,-0.19947 z m -1.10898,1.00769 -0.46457,0.79375 -0.46457,0.79375 -0.0801,0.11007 -0.0801,0.11059 v -0.27957 -0.27957 l 0.54467,-0.62425 z m 9.486242,0 0.53278,0.62477 0.53331,0.62425 v 0.23564 0.23565 l -0.0662,-0.002 -0.0661,-0.002 -0.46715,-0.85783 z m -35.374582,0.52916 0.11472,0.59532 0.11472,0.59531 -0.11472,0.59531 -0.11472,0.59531 v -1.19062 z m 61.118752,0 0.11472,0.59532 0.11472,0.59531 -0.11472,0.59531 -0.11472,0.59531 v -1.19062 z m -98.160422,0.26459 v 1.19062 1.19063 l 0.11472,-0.59532 0.11472,-0.59531 -0.11472,-0.59531 z m 24.5954,2.11666 0.12196,0.46768 0.12195,0.46818 -0.13177,0.32557 -0.13178,0.32607 0.01,-0.79375 z m 36.80499,0 0.10387,0.99788 0.10438,0.99838 -0.10645,0.8537 -0.10594,0.85421 0.002,-1.85208 z m 12.435412,0 0.10387,0.99788 0.10439,0.99838 -0.10594,0.8537 -0.10645,0.85421 0.002,-1.85208 z m -48.995452,1.5875 0.13901,0.34727 0.139,0.34727 -0.15968,0.15968 -0.15968,0.15968 0.0207,-0.50695 z m -24.8512,1.05834 v 0.92604 0.92604 l 0.12144,-0.46302 0.12092,-0.46302 -0.12092,-0.46302 z m 36.75745,0 0.13384,0.33073 0.13332,0.33073 -0.13332,0.33072 -0.13384,0.33073 v -0.66145 z m 61.647912,0 0.13384,0.33073 0.13333,0.33073 -0.13333,0.33072 -0.13384,0.33073 v -0.66145 z m 12.17083,0.52916 0.13901,0.34727 0.13901,0.34727 -0.15968,0.15968 -0.15968,0.15968 0.0207,-0.50695 z m -0.0413,1.10226 v 0.25787 l -5.1e-4,0.25838 -0.41135,0.51366 -0.41134,0.51367 0.31522,-0.66146 0.31471,-0.66146 0.0966,-0.11059 z m -84.732292,0.0651 0.15658,0.40825 0.15658,0.40876 h -0.10801 -0.10852 l -0.17415,-0.28267 -0.17466,-0.28215 0.12609,-0.1261 z m 35.31619,0.42013 0.12144,0.46302 0.12092,0.46303 -0.12092,0.46302 -0.12144,0.46302 v -0.92604 z m 12.964582,0 0.12144,0.46302 0.12092,0.46303 -0.12092,0.46302 -0.12144,0.46302 v -0.92604 z m -74.147412,0.26459 0.17777,0.79375 0.17776,0.79375 -0.016,0.59531 -0.016,0.59531 h 0.24857 0.24856 l -0.16846,0.89866 -0.16898,0.89865 0.68884,2.25878 0.68937,2.25826 0.78703,1.75493 0.78755,1.75545 0.30902,-0.19069 0.30851,-0.19069 -0.18397,0.29766 -0.18397,0.29766 0.4191,0.81028 0.41858,0.80977 0.23513,-0.14521 0.23512,-0.14521 0.19121,0.31006 0.19172,0.30954 -0.34003,-0.20981 -0.33952,-0.21032 0.12247,0.36794 0.12248,0.36742 h 0.2868 0.28629 l 0.19844,0.19843 0.19843,0.19844 0.10801,-0.108 0.108,-0.10801 -0.71313,-1.07848 -0.71365,-1.07797 -0.21394,0.13229 -0.21446,0.13229 -0.1912,-0.31006 -0.19172,-0.30954 0.30592,0.18862 0.30541,0.18862 v -0.11111 -0.1111 l -1.05368,-2.24793 -1.05317,-2.2474 -0.66559,-2.48564 -0.6656,-2.48512 -0.17156,-1.67328 -0.17157,-1.67277 -0.1943,0.31368 -0.19379,0.31419 -0.16588,-0.3607 z m 109.616052,1.1777 -0.33487,0.40308 -0.33486,0.40359 h 0.28164 0.28112 l 0.17466,-0.28215 0.17415,-0.28215 -0.12092,-0.12144 z m -82.228572,0.51057 0.79375,0.46457 0.79375,0.46509 0.11007,0.0801 0.11007,0.0796 h -0.27906 -0.27956 l -0.62477,-0.54467 z m 33.51113,0.16381 0.13384,0.33073 0.13333,0.33073 -0.13333,0.33073 -0.13384,0.33073 v -0.66146 z m 13.493752,0 0.13384,0.33073 0.13332,0.33073 -0.13332,0.33073 -0.13384,0.33073 v -0.66146 z m -44.216942,0.88522 0.32556,0.13177 0.32608,0.13229 -0.79375,-0.0103 -0.79375,-0.01 0.46767,-0.12196 z m 1.57768,0.002 0.46302,0.12144 0.46302,0.12092 h -0.92604 -0.92604 l 0.46302,-0.12092 z m 71.966672,0 0.46302,0.12144 0.46302,0.12092 h -0.92604 -0.92605 l 0.46302,-0.12092 z m 2.12286,0.002 0.45992,0.1204 0.45992,0.11938 -1.05833,-0.005 -1.05833,-0.005 0.59841,-0.11524 z m -45.208602,0.69918 0.13901,0.34727 0.139,0.34726 -0.15968,0.15968 -0.15968,0.1602 0.0207,-0.50746 z m 14.022912,0 0.13901,0.34727 0.13901,0.34726 -0.15968,0.15968 -0.15968,0.1602 0.0207,-0.50746 z m 59.79583,0.26458 0.13901,0.34727 0.13901,0.34727 -0.15968,0.15968 -0.15968,0.16019 0.0207,-0.50746 z m -133.614582,0.26459 0.13901,0.34726 0.13901,0.34727 -0.15968,0.15968 -0.15968,0.1602 0.0207,-0.50747 z m 0.26459,1.05833 0.13901,0.34727 0.139,0.34726 -0.15968,0.15968 -0.15968,0.1602 0.0207,-0.50746 z m 59.00208,0.52917 0.13901,0.34726 0.13901,0.34727 -0.15968,0.15968 -0.15968,0.1602 0.0207,-0.50747 z m 15.081252,0 0.13901,0.34726 0.13901,0.34727 -0.15968,0.15968 -0.15968,0.1602 0.0207,-0.50747 z m 58.7375,0.26458 0.13901,0.34727 0.13901,0.34726 -0.15968,0.15968 -0.15968,0.1602 0.0207,-0.50746 z m -74.397532,2.38125 v 0.26458 0.26459 l -0.25631,0.39687 -0.25683,0.39688 v -0.26459 -0.26458 l 0.25683,-0.39687 z m 16.428452,0 0.28061,0.48266 0.28112,0.48317 -0.12403,0.12351 -0.12402,0.12402 -0.16485,-0.42994 -0.16484,-0.42995 0.008,-0.17674 z m -73.554162,1.05833 0.2806,0.48266 0.28112,0.48318 -0.12402,0.1235 -0.12402,0.12403 -0.16485,-0.42995 -0.16485,-0.42995 0.008,-0.17673 z m 56.17538,0.93741 0.10077,0.10077 0.10077,0.10129 -0.55294,1.08365 -0.55293,1.08418 h -0.12355 -0.12351 l 0.57568,-1.18495 z m 18.320852,0 0.57567,1.18494 0.57568,1.18495 h -0.12351 -0.12351 l -0.55293,-1.08418 -0.55294,-1.08365 0.10077,-0.10129 z m 54.35844,2.36989 h 0.13229 0.13229 l -0.28319,0.52916 -0.28318,0.52917 h -0.1323 -0.13229 l 0.28319,-0.52917 z m -74.071972,1.1007 -0.46405,0.0682 -0.46354,0.0677 -0.0956,0.28681 -0.0951,0.28628 0.46354,-0.0682 0.46354,-0.0682 0.0956,-0.28629 z m 21.136702,0.004 v 0.1974 0.19689 l 0.13229,0.13229 0.13177,0.13229 h 0.40463 0.40411 l -0.0879,-0.26355 -0.0879,-0.26355 -0.44855,-0.0656 z m 51.55809,0.57102 -0.80719,1.17357 -0.8077,1.17358 -1.92598,1.92598 -1.92598,1.92598 -1.17357,0.80718 -1.17357,0.80771 v 0.42168 l -5.2e-4,0.42167 0.2868,-0.0956 0.28629,-0.0951 v -0.28681 -0.2868 l 0.24081,-0.22014 0.24081,-0.22066 -0.19016,0.33073 -0.19017,0.33073 h 0.18448 0.18449 l 1.8557,-1.51825 1.85518,-1.51774 1.67742,-1.98799 1.6769,-1.98748 0.003,-0.21394 0.003,-0.21446 -0.33073,0.19069 -0.33073,0.19017 0.22014,-0.24081 0.22066,-0.24082 h 0.2868 0.28629 l 0.0956,-0.2868 0.0956,-0.28629 h -0.42168 z m -73.223952,0.21859 -0.42995,0.0631 -0.42995,0.063 -0.63407,0.77567 -0.63407,0.77566 -0.009,0.23926 -0.009,0.23978 0.59531,-0.50436 0.59532,-0.50385 -0.50592,0.59687 -0.50539,0.59686 -0.14159,-0.14159 -0.14211,-0.14211 -1.91927,1.90686 -1.91926,1.90634 0.11317,0.18242 0.11266,0.18293 -0.5886,0.49816 -0.58911,0.49868 0.50385,-0.59531 0.50384,-0.59531 h -0.26458 -0.26459 l -0.43821,0.4842 -0.43874,0.48473 0.1509,0.15038 0.15038,0.15038 -0.32298,0.19998 -0.20464,0.12609 0.0956,-5.1e-4 -0.39687,0.26975 -0.39688,0.26975 -0.52916,0.27337 -0.52917,0.27337 0.66146,-0.54106 0.66146,-0.54105 0.26458,-0.002 0.0951,-5.1e-4 0.14418,-0.23306 0.18862,-0.30541 h -0.1664 -0.1664 l -1.19114,0.81959 -1.19114,0.81959 -2.42828,1.14825 -2.42827,1.14825 -2.28927,0.66197 -2.28927,0.66198 -1.67948,0.1912 -1.67948,0.1912 0.3607,0.12144 0.36018,0.12144 -0.36018,0.25528 -0.3607,0.25528 0.66145,-0.185 0.66146,-0.185 0.59531,0.002 0.59532,0.002 v -0.24857 -0.24856 l 0.85989,0.16123 0.8599,0.16123 2.18591,-0.69091 2.18643,-0.69092 1.78232,-0.79891 1.78284,-0.79892 2.52749,-1.68207 2.52801,-1.68155 2.56522,-2.67271 2.56574,-2.6727 v -0.27337 -0.27388 l -0.33073,0.19068 -0.33073,0.19017 0.22014,-0.24081 0.22066,-0.24081 h 0.2868 0.28629 l 0.10335,-0.30954 z m -7.7401,7.63985 -0.045,0.0723 0.11886,-0.0734 z m 29.905152,-7.63985 0.10284,0.30955 0.10335,0.30954 h 0.2868 0.28629 l 0.22066,0.24081 0.22066,0.24081 -0.33073,-0.19017 -0.33073,-0.19068 v 0.30437 0.30437 l 2.97656,2.97088 2.97656,2.97088 1.5875,1.03508 1.5875,1.03508 1.98438,1.00304 1.98437,1.00252 2.50734,0.80615 2.50734,0.80616 0.8661,-0.16227 0.8661,-0.16278 v 0.29456 0.29455 l 0.46302,-0.14418 0.46302,-0.14417 0.39688,0.25476 0.39739,0.25425 0.39687,-0.0165 0.39688,-0.0171 -0.3607,-0.14366 -0.36071,-0.14314 0.31678,-0.19586 0.31729,-0.19585 -1.63607,-0.185 -1.63556,-0.185 -2.28927,-0.66198 -2.28926,-0.66146 -2.42828,-1.14876 -2.42879,-1.14825 -1.19114,-0.81959 -1.19114,-0.81959 h -0.1664 -0.16588 l 0.19017,0.33073 0.1173,0.20412 0.11989,0.002 0.26458,0.004 0.66146,0.51728 0.66146,0.5178 -0.13229,0.004 -0.13229,0.004 -0.79375,-0.52607 -0.79375,-0.52555 0.0785,0.001 -0.10181,-0.093 -0.24081,-0.22014 -0.003,-0.17674 -0.003,-0.17621 -2.53421,-2.44533 -2.53422,-2.44585 -0.13229,0.13229 -0.13177,0.13178 -0.5054,-0.59686 -0.50539,-0.59687 0.59479,0.50385 0.59532,0.50436 -0.01,-0.23978 -0.01,-0.23926 -0.63407,-0.77566 -0.63407,-0.77567 -0.42995,-0.063 z m 7.64915,7.6352 0.139,0.12764 -0.0729,-0.12661 z M 38.163088,164.2709 v 0.26458 0.26458 l 0.39687,0.3297 0.39688,0.32918 v 0.13177 0.26097 l 2.4169,2.41742 2.41691,2.41691 h 0.26148 0.13126 l 0.3297,0.39687 0.32918,0.39688 h 0.26458 0.26458 l -0.32918,-0.39688 -0.32969,-0.39687 h 0.1974 0.0672 l 0.2744,0.33073 0.27441,0.33073 0.003,0.25786 0.003,0.25787 0.32142,0.10697 0.32091,0.10749 -0.21135,-0.36536 -0.21188,-0.36483 0.24133,0.22014 0.24081,0.22066 v 0.27492 0.2744 l 2.10479,1.14463 2.10478,1.14412 2.88509,0.95859 2.88561,0.9586 1.06247,-0.17983 1.06247,-0.17932 -0.20929,0.33848 -0.20877,0.33848 0.43976,-0.16898 0.43977,-0.16898 0.59583,0.23978 0.59531,0.23926 0.39688,-0.002 0.39687,-0.002 -0.52917,-0.22737 -0.52916,-0.22738 0.39687,-0.0424 0.39688,-0.0424 -2.11667,-0.37259 -2.11667,-0.37258 -2.11666,-0.65268 -2.11667,-0.65215 -2.19831,-1.06609 -2.19832,-1.06608 -1.15652,-0.7953 -1.15652,-0.79582 h -0.18293 -0.0537 l -0.32918,-0.39688 -0.3297,-0.39687 h -0.26464 -0.26458 l 0.32969,0.39687 0.32918,0.39688 h -0.19688 -0.0677 l -0.29456,-0.35502 -0.29455,-0.35502 0.12195,-0.12247 0.12196,-0.12195 -2.10892,-2.096 -2.1084,-2.09651 v 0.22479 0.22427 l -0.39687,-0.32917 -0.39688,-0.3297 v -0.0879 -0.21756 l 0.31265,0.31316 0.31316,0.31316 0.12144,-0.12144 0.12195,-0.12144 -0.34003,-0.40979 -0.34003,-0.4098 -0.13643,0.13643 -0.13642,0.13642 -0.35502,-0.29455 z m 124.171242,0.32969 h 0.13229 0.13229 l -0.47852,0.52917 -0.47904,0.52917 h -0.1323 -0.13229 l 0.47904,-0.52917 z m -0.74311,1.19063 -1.97817,2.05052 -1.97766,2.05052 h -0.0729 -0.0724 v -0.0729 -0.0729 l 2.05052,-1.97766 z m -121.972912,0.26458 1.91823,1.84485 1.91822,1.84485 v 0.0734 0.0734 h -0.0734 -0.0734 l -1.84484,-1.91823 z m 74.083332,0 1.78593,1.71204 1.78594,1.71204 v 0.0739 0.0739 h -0.0739 -0.0739 l -1.71204,-1.78594 z m -26.473842,0.13229 h 0.13229 0.1323 l -1.70429,1.71979 -1.70481,1.7198 h -0.13229 -0.13229 l 1.7048,-1.7198 z m 30.178002,3.30729 0.59532,0.50385 0.59531,0.50384 v 0.0915 0.0915 h -0.0915 -0.0915 l -0.50384,-0.59531 z m 39.63686,0.39688 h 0.13229 0.13229 l -0.47852,0.52917 -0.47904,0.52916 h -0.13229 -0.13229 l 0.47904,-0.52916 z m -2.50631,1.5875 -1.49965,0.8692 -1.49965,0.86868 -1.5875,0.70228 -1.5875,0.70177 -2.35179,0.68006 -2.35128,0.67954 -1.41232,0.1664 -1.41231,0.16588 0.12712,0.20619 0.12764,0.20619 -0.33228,0.15658 -0.33228,0.15658 0.79375,-0.17053 0.79375,-0.17105 0.46302,0.0207 0.46303,0.0202 v -0.20102 -0.20154 l 1.25677,0.0176 1.25677,0.0176 1.98437,-0.6475 1.98438,-0.64803 2.62309,-1.3348 2.62362,-1.3348 0.0651,-0.46302 0.0651,-0.46302 h -0.13074 z m -108.038882,0.49971 0.59532,0.28835 0.59531,0.28888 v 0.12299 0.12299 h -0.0822 -0.0816 l -0.51367,-0.41187 z m 107.817712,0.0109 v 0.13229 0.1323 l -0.52917,0.28318 -0.52916,0.28319 v -0.13229 -0.13229 l 0.52916,-0.28319 z m -33.20521,0.25373 0.59531,0.28887 0.59532,0.28836 v 0.12299 0.12299 h -0.0822 -0.0816 l -0.51366,-0.41135 z m -41.142712,0.0109 v 0.13229 0.13229 l -0.52916,0.28319 -0.52917,0.28318 v -0.13229 -0.13229 l 0.52917,-0.28319 z m 72.495842,0.79891 v 0.13229 0.1323 l -0.78084,0.40359 -0.78083,0.40359 h -0.18913 -0.18965 l 0.11007,-0.0987 0.11058,-0.0987 0.8599,-0.43718 z m -76.332292,1.07952 h 0.26458 0.26458 l -0.39687,0.25684 -0.39688,0.25631 h -0.26458 -0.26458 l 0.39687,-0.25631 z m 48.418742,0 h 0.26459 0.26458 l 0.39688,0.25684 0.39687,0.25631 h -0.26458 -0.26459 l -0.39687,-0.25631 z m 24.87084,0.2651 h 0.26458 0.26458 l -0.39687,0.25632 -0.39688,0.25631 h -0.26458 -0.26458 l 0.39687,-0.25631 z m -94.820052,0.99478 0.15968,0.15968 0.15968,0.16019 -0.50695,-0.0212 -0.50694,-0.0207 0.34726,-0.13901 z m 91.281242,0.26458 0.15969,0.1602 0.15968,0.15968 -0.50695,-0.0212 -0.50695,-0.0207 0.34727,-0.13901 z m -74.877082,0.26458 0.15968,0.15968 0.15968,0.1602 -0.50694,-0.0212 -0.50695,-0.0207 0.34727,-0.13901 z m 59.531252,0 0.15968,0.15968 0.15968,0.1602 -0.50694,-0.0212 -0.50695,-0.0207 0.34727,-0.13901 z m 14.2875,0 0.15968,0.1602 0.15968,0.15968 -0.50694,-0.0212 -0.50695,-0.0207 0.34727,-0.13901 z m -82.837832,0.80822 -0.46819,0.12196 -0.46767,0.12144 0.79375,0.0103 0.79375,0.01 -0.32608,-0.13177 z m 3.43958,0 -0.46819,0.12196 -0.46767,0.12144 0.79375,0.0103 0.79375,0.01 -0.32608,-0.13177 z m 70.643752,0 -0.46819,0.12196 -0.46767,0.12144 0.79375,0.0103 0.79375,0.01 -0.32608,-0.13177 z m 3.16518,0.002 -0.46302,0.12092 -0.46302,0.12092 h 0.92604 0.92604 l -0.46302,-0.12092 z" /><circle
       style="fill:#000000;stroke-width:0.264583"
       id="path2"
       cx="103.10458"
       cy="52.379333"
       r="4.5946784" /></g></svg>
