<svg xmlns="http://www.w3.org/2000/svg" viewBox="0 0 960 600" width="960" height="600" role="img" aria-hidden="true"><rect width="960" height="600" fill="#343943"/><rect x="24.5" y="24.5" width="911" height="551" fill="none" stroke="#4C535F" stroke-width="1"/><line x1="80.0" y1="24" x2="80.0" y2="576" stroke="#4C535F" stroke-width="1" opacity="0.45"/><line x1="160.0" y1="24" x2="160.0" y2="576" stroke="#4C535F" stroke-width="1" opacity="0.45"/><line x1="240.0" y1="24" x2="240.0" y2="576" stroke="#4C535F" stroke-width="1" opacity="0.45"/><line x1="320.0" y1="24" x2="320.0" y2="576" stroke="#4C535F" stroke-width="1" opacity="0.45"/><line x1="400.0" y1="24" x2="400.0" y2="576" stroke="#4C535F" stroke-width="1" opacity="0.45"/><line x1="480.0" y1="24" x2="480.0" y2="576" stroke="#4C535F" stroke-width="1" opacity="0.45"/><line x1="560.0" y1="24" x2="560.0" y2="576" stroke="#4C535F" stroke-width="1" opacity="0.45"/><line x1="640.0" y1="24" x2="640.0" y2="576" stroke="#4C535F" stroke-width="1" opacity="0.45"/><line x1="720.0" y1="24" x2="720.0" y2="576" stroke="#4C535F" stroke-width="1" opacity="0.45"/><line x1="800.0" y1="24" x2="800.0" y2="576" stroke="#4C535F" stroke-width="1" opacity="0.45"/><line x1="880.0" y1="24" x2="880.0" y2="576" stroke="#4C535F" stroke-width="1" opacity="0.45"/><line x1="24" y1="504" x2="936" y2="504" stroke="#98A0AC" stroke-width="2"/><rect x="100.0" y="376.0" width="63.9" height="128.0" fill="#2B303A" stroke="#98A0AC" stroke-width="2"/><rect x="216.0" y="222.0" width="63.9" height="282.0" fill="#2B303A" stroke="#98A0AC" stroke-width="2"/><rect x="332.0" y="323.0" width="63.9" height="181.0" fill="#2B303A" stroke="#98A0AC" stroke-width="2"/><rect x="448.1" y="413.0" width="63.9" height="91.0" fill="#2B303A" stroke="#98A0AC" stroke-width="2"/><rect x="564.1" y="409.0" width="63.9" height="95.0" fill="#2B303A" stroke="#98A0AC" stroke-width="2"/><rect x="680.1" y="188.0" width="63.9" height="316.0" fill="#2B303A" stroke="#98A0AC" stroke-width="2"/><rect x="796.1" y="190.0" width="63.9" height="314.0" fill="#B4602E" stroke="#D9905C" stroke-width="2"/></svg>